Coordinates
version=1
nRows=27
nColumns=26
inDegrees=yes

Units are S.I. units (second, meters, Newtons, ...)
Angles are in degrees.

endheader
time	pelvis_tilt	pelvis_list	pelvis_rotation	pelvis_tx	pelvis_ty	pelvis_tz	hip_flexion_r	hip_adduction_r	hip_rotation_r	knee_angle_r	knee_angle_r_beta	ankle_angle_r	subtalar_angle_r	mtp_angle_r	hip_flexion_l	hip_adduction_l	hip_rotation_l	knee_angle_l	knee_angle_l_beta	ankle_angle_l	subtalar_angle_l	mtp_angle_l	lumbar_extension	lumbar_bending	lumbar_rotation
      0.27500000	      6.10512213	     -1.39074618	     -1.81379150	      0.37081627	      1.02000765	      0.16278964	     10.07331805	     -2.89650777	     -1.51740530	     57.33549285	     57.33549285	      0.91454178	      0.00000000	      0.00000000	      0.66319922	      0.37554001	    -10.07782341	     12.15402914	     12.15402914	      4.53258871	      0.00000000	      0.00000000	    -18.89014480	     -0.71950944	      3.26879119
      0.28333333	      6.06240677	     -1.50198987	     -1.57236552	      0.37920392	      1.02087811	      0.16234888	     10.90156992	     -2.68085489	     -1.62363875	     56.20780568	     56.20780568	      1.63198876	      0.00000000	      0.00000000	     -0.10364312	      0.34149280	     -9.93065691	     11.60009786	     11.60009786	      4.61574233	      0.00000000	      0.00000000	    -18.85297217	     -0.52989032	      3.07826661
      0.29166667	      6.04494689	     -1.57862702	     -1.27267023	      0.38763355	      1.02162567	      0.16195809	     11.59120043	     -2.46183353	     -1.69372755	     54.89266703	     54.89266703	      2.51503053	      0.00000000	      0.00000000	     -0.89682724	      0.33600871	     -9.69210851	     11.03662736	     11.03662736	      4.69752091	      0.00000000	      0.00000000	    -18.84220029	     -0.37527751	      2.81956816
      0.30000000	      5.85001245	     -1.68412654	     -1.14014012	      0.39560693	      1.02200553	      0.16154685	     12.66143499	     -2.33372288	     -1.89690527	     53.65257762	     53.65257762	      2.84076713	      0.00000000	      0.00000000	     -1.40663754	      0.30608356	     -9.64401588	     10.59816356	     10.59816356	      5.06855105	      0.00000000	      0.00000000	    -18.67878096	     -0.20169348	      2.73130793
      0.30833333	      5.66942946	     -1.74717599	     -1.03869766	      0.40361901	      1.02220633	      0.16124141	     13.61776529	     -2.18346571	     -1.92276226	     52.17217318	     52.17217318	      3.12346926	      0.00000000	      0.00000000	     -1.96632619	      0.31435726	     -9.55520043	     10.11781866	     10.11781866	      5.25279639	      0.00000000	      0.00000000	    -18.52269737	     -0.09191727	      2.67903520
      0.31666667	      5.57107958	     -1.77444376	     -0.74940788	      0.41189733	      1.02248768	      0.16096892	     14.33361037	     -2.10731436	     -2.21132658	     50.49528007	     50.49528007	      3.36030102	      0.00000000	      0.00000000	     -2.59007004	      0.30651331	     -9.38282693	      9.72550803	      9.72550803	      5.21816084	      0.00000000	      0.00000000	    -18.43464431	     -0.01204154	      2.41428769
      0.32500000	      5.52919909	     -1.82513546	     -0.42297958	      0.42019756	      1.02277664	      0.16068100	     14.88052035	     -2.01403350	     -2.57427825	     48.52847631	     48.52847631	      3.56558395	      0.00000000	      0.00000000	     -3.25054397	      0.25586258	     -9.14504188	      9.37471345	      9.37471345	      5.23257733	      0.00000000	      0.00000000	    -18.40532579	      0.09598981	      2.12773131
      0.33333333	      5.43263513	     -1.83872431	     -0.12118824	      0.42841467	      1.02278984	      0.16030101	     15.46236387	     -1.97652732	     -2.86100593	     46.50800413	     46.50800413	      3.71351787	      0.00000000	      0.00000000	     -3.84880577	      0.25468409	     -8.81620868	      8.98449955	      8.98449955	      5.38003556	      0.00000000	      0.00000000	    -18.32293447	      0.17503507	      1.85183468
      0.34166667	      5.36686486	     -1.82343690	      0.13549127	      0.43647311	      1.02271646	      0.16012358	     15.97009336	     -1.92798879	     -3.04331607	     44.36604757	     44.36604757	      3.82634922	      0.00000000	      0.00000000	     -4.44815708	      0.26622611	     -8.37915774	      8.64965722	      8.64965722	      5.60935340	      0.00000000	      0.00000000	    -18.29990161	      0.19892789	      1.60556908
      0.35000000	      5.26252191	     -1.80457049	      0.34444845	      0.44460844	      1.02244760	      0.15976300	     16.47516769	     -1.90423370	     -3.22501121	     42.13707576	     42.13707576	      3.90848077	      0.00000000	      0.00000000	     -4.98340208	      0.31026151	     -8.31201232	      8.36095132	      8.36095132	      5.82083718	      0.00000000	      0.00000000	    -18.22848118	      0.23651721	      1.37491910
      0.35833333	      5.19481463	     -1.77687607	      0.54811002	      0.45273363	      1.02216975	      0.15960879	     16.86375787	     -1.86258304	     -3.40098323	     39.73618584	     39.73618584	      3.85558087	      0.00000000	      0.00000000	     -5.52176843	      0.34754022	     -8.31210350	      8.20331065	      8.20331065	      6.09309540	      0.00000000	      0.00000000	    -18.20353786	      0.22984509	      1.18167022
      0.36666667	      5.09775204	     -1.68026925	      0.79752844	      0.46082696	      1.02166470	      0.15936726	     17.19338784	     -1.89146519	     -3.58007349	     37.19328551	     37.19328551	      3.75296606	      0.00000000	      0.00000000	     -5.95973241	      0.44689832	     -8.32004465	      8.17841020	      8.17841020	      6.42275261	      0.00000000	      0.00000000	    -18.15704305	      0.17222711	      0.88238347
      0.37500000	      4.99986865	     -1.64181210	      1.05531610	      0.46896257	      1.02103964	      0.15930179	     17.41734080	     -1.84747351	     -3.79973212	     34.40610009	     34.40610009	      3.42225266	      0.00000000	      0.00000000	     -6.42986513	      0.45563220	     -8.23084305	      8.06374165	      8.06374165	      6.77015564	      0.00000000	      0.00000000	    -18.10609554	      0.15995211	      0.63293432
      0.38333333	      4.95570035	     -1.54209019	      1.26955471	      0.47711404	      1.02046320	      0.15935552	     17.50591221	     -1.86397371	     -4.03366648	     31.49267941	     31.49267941	      3.03658308	      0.00000000	      0.00000000	     -7.00550320	      0.52533817	     -8.07073358	      7.87789960	      7.87789960	      7.02864794	      0.00000000	      0.00000000	    -18.12261266	      0.06694853	      0.39078290
      0.39166667	      4.82331307	     -1.43520401	      1.50011510	      0.48523201	      1.01954861	      0.15939579	     17.64550492	     -1.88731666	     -4.32652024	     28.49253724	     28.49253724	      2.60770368	      0.00000000	      0.00000000	     -7.36106106	      0.58050189	     -7.92196510	      7.91447440	      7.91447440	      7.39148578	      0.00000000	      0.00000000	    -18.04176017	     -0.02868201	      0.11285320
      0.40000000	      4.73175986	     -1.29662141	      1.70592651	      0.49335419	      1.01864424	      0.15957219	     17.63654802	     -1.91342601	     -4.66057219	     25.32016972	     25.32016972	      2.15113079	      0.00000000	      0.00000000	     -7.80617510	      0.67528770	     -7.72599330	      7.89520147	      7.89520147	      7.76055913	      0.00000000	      0.00000000	    -18.01120563	     -0.17683507	     -0.13069641
      0.40833333	      4.55918554	     -1.14570406	      1.86204501	      0.50141617	      1.01747207	      0.15983381	     17.66626769	     -1.93684164	     -4.90936329	     22.12713156	     22.12713156	      1.71603502	      0.00000000	      0.00000000	     -8.08364814	      0.78359391	     -7.65399652	      8.00305129	      8.00305129	      8.16532670	      0.00000000	      0.00000000	    -17.88833614	     -0.34138429	     -0.33942652
      0.41666667	      4.34587447	     -0.90018935	      2.01323349	      0.50949095	      1.01604394	      0.16011174	     17.76490289	     -2.06315202	     -5.23169075	     19.06349311	     19.06349311	      1.28697741	      0.00000000	      0.00000000	     -8.34897493	      0.98805434	     -7.54077273	      8.06147641	      8.06147641	      8.50289781	      0.00000000	      0.00000000	    -17.71892952	     -0.60710599	     -0.57298769
      0.42500000	      4.11042680	     -0.63773832	      2.15251354	      0.51755932	      1.01457387	      0.16044485	     17.83533338	     -2.19340179	     -5.56551365	     16.01608135	     16.01608135	      0.83106271	      0.00000000	      0.00000000	     -8.56940444	      1.20340965	     -7.30832025	      8.22044390	      8.22044390	      8.93463071	      0.00000000	      0.00000000	    -17.52913123	     -0.89664846	     -0.78512140
      0.43333333	      3.85894638	     -0.33924584	      2.20378745	      0.52564725	      1.01296031	      0.16087963	     17.91003296	     -2.33211823	     -5.80294299	     13.04876309	     13.04876309	      0.27850669	      0.00000000	      0.00000000	     -8.78050463	      1.46360902	     -7.27859715	      8.37368886	      8.37368886	      9.43102795	      0.00000000	      0.00000000	    -17.30455777	     -1.24749211	     -0.91088617
      0.44166667	      3.57004637	     -0.04542638	      2.29334750	      0.53377675	      1.01118174	      0.16126095	     18.00802244	     -2.46722961	     -6.05257504	     10.21672619	     10.21672619	     -0.22595717	      0.00000000	      0.00000000	     -8.91188706	      1.72219288	     -7.19720224	      8.56382301	      8.56382301	      9.86731803	      0.00000000	      0.00000000	    -17.02736813	     -1.57273474	     -1.06141586
      0.45000000	      3.28457849	      0.27377527	      2.37830457	      0.54191597	      1.00940345	      0.16172643	     18.11236360	     -2.61231105	     -6.34446378	      7.59946647	      7.59946647	     -0.93946722	      0.00000000	      0.00000000	     -9.02228477	      1.99525625	     -7.06450288	      8.82084235	      8.82084235	     10.29924013	      0.00000000	      0.00000000	    -16.74605255	     -1.92915649	     -1.21811451
      0.45833333	      3.05891270	      0.55860480	      2.43838802	      0.55028929	      1.00770386	      0.16237829	     18.15984668	     -2.70240147	     -6.63811714	      5.20713215	      5.20713215	     -1.68050183	      0.00000000	      0.00000000	     -9.28447336	      2.23931259	     -6.88503680	      8.93706400	      8.93706400	     10.69622976	      0.00000000	      0.00000000	    -16.49401843	     -2.26713543	     -1.31942041
      0.46666667	      2.80012135	      0.84098145	      2.50732056	      0.55866403	      1.00582804	      0.16292560	     18.36601057	     -2.82280353	     -6.96413917	      3.31401713	      3.31401713	     -2.34613960	      0.00000000	      0.00000000	     -9.48645343	      2.48698013	     -6.75407882	      9.11093753	      9.11093753	     11.12619748	      0.00000000	      0.00000000	    -16.19844085	     -2.58222851	     -1.41383150
      0.47500000	      2.57796850	      1.12376170	      2.61048840	      0.56710376	      1.00410684	      0.16335564	     18.63026373	     -2.98621349	     -7.29810806	      1.96429362	      1.96429362	     -2.49813512	      0.00000000	      0.00000000	     -9.67390582	      2.70629237	     -6.70226714	      9.36240863	      9.36240863	     11.49001790	      0.00000000	      0.00000000	    -15.93594119	     -2.86336331	     -1.57517629
      0.48333333	      2.47253404	      1.35645482	      2.71109904	      0.57576935	      1.00260032	      0.16395288	     18.81125507	     -3.06754271	     -7.55538976	      1.02671346	      1.02671346	     -2.68185662	      0.00000000	      0.00000000	    -10.03554745	      2.84751621	     -6.50933686	      9.55590201	      9.55590201	     11.79812975	      0.00000000	      0.00000000	    -15.77832593	     -3.10194585	     -1.69468199
      0.49166667	      2.46675004	      1.50447820	      2.91801015	      0.58467318	      1.00132226	      0.16455188	     18.92167706	     -3.07289390	     -7.97774070	      0.63012756	      0.63012756	     -2.64746372	      0.00000000	      0.00000000	    -10.47644036	      2.85877780	     -6.30446391	      9.78909326	      9.78909326	     12.07377222	      0.00000000	      0.00000000	    -15.71321897	     -3.21966902	     -1.90181410
